<svg width="75" height="75" viewBox="0 0 75 75" fill="none" xmlns="http://www.w3.org/2000/svg">
<path d="M19 18.3877H57V58.3877H19V18.3877Z" fill="white"/>
<path d="M37.3333 2.3877L38.3218 2.40128C57.3694 2.92534 72.6667 18.5476 72.6667 37.721C72.6667 57.1897 56.8373 73.0544 37.3333 73.0544C17.8647 73.0544 2 57.1897 2 37.721C2 18.217 17.8647 2.3877 37.3333 2.3877ZM44.3293 23.5877C43.2693 22.5277 41.6087 22.5277 40.584 23.5877L28.2527 35.8484C27.758 36.343 27.4753 37.0144 27.4753 37.721C27.4753 38.4277 27.758 39.099 28.2527 39.5937L40.584 51.8544C41.0787 52.3844 41.75 52.6317 42.4213 52.6317C43.128 52.6317 43.7993 52.3844 44.3293 51.8544C45.354 50.7944 45.354 49.1337 44.294 48.109L33.8707 37.721L44.294 27.333C45.354 26.3084 45.354 24.6124 44.3293 23.5877Z" fill="#110F2D"/>
<path d="M37.3429 1.68776V1.6877H37.3333C17.4785 1.6877 1.3 17.83 1.3 37.721C1.3 57.5763 17.4781 73.7544 37.3333 73.7544C57.2244 73.7544 73.3667 57.5758 73.3667 37.721C73.3667 18.1674 57.7665 2.236 38.3411 1.70154V1.70148L38.3315 1.70134L37.3429 1.68776ZM41.0775 24.0841L41.0776 24.0842L41.0873 24.0742C41.8322 23.3036 43.043 23.2913 43.8344 24.0827C44.5842 24.8326 44.5843 26.0788 43.8075 26.8297L43.8074 26.8297L43.7999 26.8372L33.3765 37.2252L32.879 37.721L33.3765 38.2168L43.7999 48.6048L43.7998 48.6049L43.8075 48.6123C44.5783 49.3574 44.5916 50.5714 43.8302 51.3635C43.4424 51.7492 42.9554 51.9317 42.4213 51.9317C41.9209 51.9317 41.443 51.7488 41.0957 51.3767L41.0868 51.3672L41.0775 51.358L28.7476 39.0987C28.7474 39.0985 28.7472 39.0983 28.7469 39.098C28.3825 38.7332 28.1753 38.2396 28.1753 37.721C28.1753 37.2025 28.3825 36.7089 28.7469 36.344C28.7472 36.3438 28.7474 36.3436 28.7476 36.3433L41.0775 24.0841Z" stroke="white" stroke-opacity="0.46" stroke-width="1.4"/>
</svg>
