<svg width="60" height="61" viewBox="0 0 60 61" fill="none" xmlns="http://www.w3.org/2000/svg">
<path d="M41.815 33.8427C41.3092 36.0138 40.2413 37.9643 38.7761 39.527L50.6456 51.5785L54.9644 47.1936L41.815 33.8427Z" fill="#52FF00"/>
<path d="M37.6386 1.605L31.739 -8.33429e-07L26.7674 18.8386L22.279 1.83098L16.3793 3.43599L21.2288 21.8114L9.14988 9.54752L4.83109 13.9325L18.0802 27.3846L1.58054 22.8958L-0.000243574 28.8857L18.0277 33.7903C17.8213 32.8864 17.7121 31.9446 17.7121 30.9769C17.7121 24.1271 23.1811 18.5743 29.9275 18.5743C36.6739 18.5743 42.1429 24.1271 42.1429 30.9769C42.1429 31.9383 42.0351 32.8744 41.8312 33.7729L58.2153 38.2302L59.796 32.2403L41.6964 27.3162L58.1971 22.8271L56.6163 16.8372L38.5174 21.761L50.5963 9.49717L46.2775 5.11222L33.2122 18.3777L37.6386 1.605Z" fill="#52FF00"/>
<path d="M38.6564 39.6531C37.1735 41.1909 35.2995 42.3385 33.198 42.9298L37.5171 59.2958L43.4166 57.6907L38.6564 39.6531Z" fill="#52FF00"/>
<path d="M32.9777 42.9897C32.0027 43.2442 30.9807 43.3794 29.9276 43.3794C28.7993 43.3794 27.7067 43.2241 26.6694 42.9333L22.3464 59.3142L28.2459 60.9191L32.9777 42.9897Z" fill="#52FF00"/>
<path d="M26.4608 42.8728C24.3914 42.2521 22.5508 41.0899 21.0982 39.5477L9.19946 51.6287L13.5183 56.0137L26.4608 42.8728Z" fill="#52FF00"/>
<path d="M20.9988 39.4409C19.5711 37.889 18.5312 35.9646 18.0362 33.8269L1.59863 38.2989L3.17941 44.2887L20.9988 39.4409Z" fill="#52FF00"/>
</svg>
