<svg width="22" height="22" viewBox="0 0 22 22" fill="none" xmlns="http://www.w3.org/2000/svg">
<path d="M20.493 2.55494C19.0927 0.883211 17.4356 0 15.7007 0C13.7661 0 12.0213 1.26548 11.0003 3.3564C9.98154 1.26548 8.24997 0 6.3348 0C4.59956 0 2.98819 0.858847 1.5443 2.5526C-0.148108 4.53927 -1.10347 9.05104 2.22188 12.4251C3.75628 13.9816 10.6826 21.7991 10.7522 21.8777C10.8215 21.9556 10.9175 22 11.0175 22H11.0179C11.1179 22 11.2136 21.956 11.2828 21.8785C11.3528 21.7998 18.2978 13.9997 19.8168 12.422C23.0784 9.03333 22.1484 4.53103 20.493 2.55494Z" fill="#FE4B8C"/>
</svg>
