<svg width="75" height="75" viewBox="0 0 75 75" fill="none" xmlns="http://www.w3.org/2000/svg">
<path d="M55.667 18.3877H17.667V58.3877H55.667V18.3877Z" fill="white"/>
<path d="M37.3337 2.3877L36.3452 2.40128C17.2976 2.92534 2.00033 18.5476 2.00033 37.721C2.00033 57.1897 17.8297 73.0544 37.3337 73.0544C56.8023 73.0544 72.667 57.1897 72.667 37.721C72.667 18.217 56.8023 2.3877 37.3337 2.3877ZM30.3377 23.5877C31.3977 22.5277 33.0583 22.5277 34.083 23.5877L46.4143 35.8484C46.909 36.343 47.1917 37.0144 47.1917 37.721C47.1917 38.4277 46.909 39.099 46.4143 39.5937L34.083 51.8544C33.5883 52.3844 32.917 52.6317 32.2457 52.6317C31.539 52.6317 30.8677 52.3844 30.3377 51.8544C29.313 50.7944 29.313 49.1337 30.373 48.109L40.7963 37.721L30.373 27.333C29.313 26.3084 29.313 24.6124 30.3377 23.5877Z" fill="#110F2D"/>
<path d="M37.324 1.68776V1.6877H37.3337C57.1885 1.6877 73.367 17.83 73.367 37.721C73.367 57.5763 57.1889 73.7544 37.3337 73.7544C17.4426 73.7544 1.30033 57.5758 1.30033 37.721C1.30033 18.1674 16.9005 2.236 36.3259 1.70154V1.70148L36.3355 1.70134L37.324 1.68776ZM33.5894 24.0841L33.5893 24.0842L33.5797 24.0742C32.8348 23.3036 31.624 23.2913 30.8326 24.0827C30.0828 24.8326 30.0827 26.0788 30.8595 26.8297L30.8596 26.8297L30.8671 26.8372L41.2905 37.2252L41.788 37.721L41.2905 38.2168L30.8671 48.6048L30.8672 48.6049L30.8595 48.6123C30.0887 49.3574 30.0754 50.5714 30.8368 51.3635C31.2246 51.7492 31.7116 51.9317 32.2457 51.9317C32.7461 51.9317 33.224 51.7488 33.5713 51.3767L33.5802 51.3672L33.5894 51.358L45.9194 39.0987C45.9196 39.0985 45.9198 39.0983 45.92 39.098C46.2845 38.7332 46.4917 38.2396 46.4917 37.721C46.4917 37.2025 46.2845 36.7089 45.92 36.344C45.9198 36.3438 45.9196 36.3436 45.9194 36.3433L33.5894 24.0841Z" stroke="white" stroke-opacity="0.46" stroke-width="1.4"/>
</svg>
