<svg width="20" height="20" viewBox="0 0 20 20" fill="none" xmlns="http://www.w3.org/2000/svg">
<path fill-rule="evenodd" clip-rule="evenodd" d="M17.2932 9.646C17.2932 13.8687 13.8698 17.292 9.64661 17.292C5.42339 17.292 2 13.8687 2 9.646C2 5.42335 5.42339 2 9.64661 2C13.8698 2 17.2932 5.42335 17.2932 9.646ZM15.7241 17.1373C14.0653 18.4846 11.9502 19.292 9.64661 19.292C4.31894 19.292 0 14.9733 0 9.646C0 4.31866 4.31894 0 9.64661 0C14.9743 0 19.2932 4.31866 19.2932 9.646C19.2932 11.9495 18.4858 14.0644 17.1384 15.7231L20.0003 18.5849L18.5861 19.9991L15.7241 17.1373Z" fill="#E6E6E6"/>
</svg>
